<?xml version="1.0" encoding="utf-8"?>
<!-- Generator: Adobe Illustrator 17.0.0, SVG Export Plug-In . SVG Version: 6.00 Build 0)  -->
<!DOCTYPE svg PUBLIC "-//W3C//DTD SVG 1.1//EN" "http://www.w3.org/Graphics/SVG/1.1/DTD/svg11.dtd">
<svg version="1.1"
	 id="Layer_1" xmlns:rdf="http://www.w3.org/1999/02/22-rdf-syntax-ns#" xmlns:cc="http://creativecommons.org/ns#" xmlns:dc="http://purl.org/dc/elements/1.1/"
	 xmlns="http://www.w3.org/2000/svg" xmlns:xlink="http://www.w3.org/1999/xlink" x="0px" y="0px" width="804px" height="594px"
	 viewBox="-70.5 165.5 804 594" enable-background="new -70.5 165.5 804 594" xml:space="preserve">
<g transform="matrix(1.25,0,0,-1.25,0,258.84)">
	<g>
		<path fill="#252525" d="M99.156-211.841v139.788L57.744-83.445v-148.649c0-7.836-0.603-13.111-1.808-15.823
			c-1.206-2.713-2.954-4.069-5.244-4.069c-1.085,0-2.291,0.422-3.617,1.266c-1.326,0.844-2.954,2.532-4.883,5.063
			c-1.688,2.291-3.828,4.611-6.42,6.962c-2.592,2.351-6.058,3.526-10.398,3.526c-5.787,0-10.398-1.447-13.834-4.34
			c-3.436-2.894-5.154-6.45-5.154-10.67c0-5.064,3.074-9.404,9.223-13.02c6.149-3.617,15.01-5.425,26.583-5.425
			c8.56,0,16.336,0.693,23.328,2.08c6.992,1.387,12.99,4.129,17.993,8.228c5.003,4.099,8.861,9.856,11.574,17.27
			C97.799-233.632,99.156-223.897,99.156-211.841L99.156-211.841z"/>
		<path fill="#252525" d="M156.673-76.03h-41.231v-95.664c0-5.907,1.236-11.453,3.707-16.637c2.471-5.184,5.877-9.705,10.217-13.563
			c4.34-3.858,9.404-6.902,15.19-9.132c5.787-2.23,12.056-3.346,18.807-3.346c5.787,0,11.754,1.386,17.903,4.159
			c6.148,2.773,11.935,6.45,17.361,11.031v-12.659h41.231v135.81h-41.231v-98.014c-3.135-4.822-6.812-8.831-11.031-12.026
			c-4.219-3.195-7.897-4.792-11.031-4.792c-2.773,0-5.365,0.512-7.776,1.537c-2.411,1.025-4.521,2.381-6.329,4.069
			c-1.808,1.688-3.225,3.707-4.25,6.058c-1.025,2.351-1.537,4.852-1.537,7.505V-76.03z"/>
		<path fill="#252525" d="M297.15-211.841v201.816l-41.05-11.393V-211.84L297.15-211.841z"/>
		<path fill="#252525" d="M313.57-83.445v-128.395h41.231v139.788L313.57-83.445z"/>
		<path fill="#252525" d="M441.802-141.675v-39.242c-4.22-3.135-8.047-5.727-11.483-7.776c-3.436-2.05-6.842-3.074-10.217-3.074
			c-1.688,0-3.255,0.512-4.702,1.537c-1.447,1.025-2.773,2.381-3.978,4.069c-1.206,1.688-2.14,3.707-2.803,6.058
			c-0.663,2.351-0.995,4.792-0.995,7.324c0,3.255,1.025,6.39,3.074,9.404c2.049,3.014,4.732,5.847,8.047,8.499
			c3.315,2.652,6.992,5.094,11.031,7.324C433.814-145.322,437.823-143.363,441.802-141.675L441.802-141.675z M483.214-211.841
			v101.812c0,5.666-1.085,10.79-3.255,15.371c-2.17,4.581-5.546,8.499-10.127,11.755c-4.581,3.255-10.398,5.757-17.451,7.505
			c-7.053,1.748-15.462,2.622-25.227,2.622c-7.957,0-15.492-0.844-22.605-2.532c-7.113-1.688-13.382-3.979-18.807-6.872
			c-5.425-2.894-9.735-6.36-12.93-10.398c-3.195-4.039-4.792-8.409-4.792-13.111c0-5.064,1.808-9.253,5.425-12.568
			c3.617-3.315,8.319-4.973,14.105-4.973c3.737,0,6.842,0.542,9.313,1.628c2.471,1.085,4.37,2.532,5.696,4.34
			c1.326,1.808,2.26,3.918,2.803,6.329c0.542,2.411,0.814,4.883,0.814,7.414c0,4.461,1.266,8.258,3.798,11.393
			c2.532,3.134,7.053,4.702,13.563,4.702c5.546,0,9.976-1.809,13.292-5.425c3.315-3.617,4.973-9.765,4.973-18.446v-13.382
			l-4.521-1.085c-5.546-1.688-11.152-3.466-16.818-5.335c-5.666-1.869-11.122-3.918-16.366-6.149
			c-5.244-2.23-10.157-4.672-14.738-7.324c-4.581-2.652-8.59-5.666-12.026-9.042c-3.436-3.376-6.148-7.173-8.138-11.393
			c-1.989-4.22-2.984-8.921-2.984-14.105c0-5.064,0.934-9.735,2.803-14.015c1.869-4.28,4.551-7.987,8.047-11.122
			c3.496-3.135,7.746-5.606,12.749-7.414c5.003-1.808,10.639-2.713,16.908-2.713c4.581,0,8.56,0.332,11.935,0.995
			c3.376,0.663,6.42,1.597,9.132,2.803c2.712,1.206,5.154,2.622,7.324,4.25c2.17,1.628,4.4,3.406,6.691,5.335v-10.85
			L483.214-211.841z"/>
	</g>
	<g>
		<circle fill="#6682DF" stroke="#4063D8" stroke-width="3.0703" cx="77.97" cy="-36.241" r="25.542"/>
		<circle fill="#D5635C" stroke="#CB3C33" stroke-width="3.0703" cx="337.043" cy="-36.241" r="25.542"/>
		<circle fill="#60AD51" stroke="#389826" stroke-width="3.0703" cx="370.567" cy="21.229" r="25.542"/>
		<circle fill="#AA79C1" stroke="#9558B2" stroke-width="3.0703" cx="404.09" cy="-36.241" r="25.542"/>
	</g>
</g>
<text transform="matrix(1 0 0 1 7.982 694.5)" font-family="'MyriadPro-Regular'" font-size="72">Berlin Meet-up Group</text>
</svg>
