<?xml version="1.0" encoding="utf-8"?>
<!-- Generator: Adobe Illustrator 23.0.1, SVG Export Plug-In . SVG Version: 6.00 Build 0)  -->
<svg version="1.1" id="Ebene_1" xmlns="http://www.w3.org/2000/svg" xmlns:xlink="http://www.w3.org/1999/xlink" x="0px" y="0px"
	 viewBox="0 0 451 384.1" style="enable-background:new 0 0 451 384.1;" xml:space="preserve">
<style type="text/css">
	.st0{fill:#020203;}
	.st1{fill:#CC3C33;}
	.st2{fill:#8F5AA1;}
	.st3{fill:#3A9936;}
	.st4{fill:#4360AA;}
</style>
<g id="surface61">
	<path class="st0" d="M216.2,155.5v59.8c0,1.7,0.3,3.2,1,4.7s1.5,2.7,2.7,3.8c1.1,1.1,2.4,1.9,4,2.5s3.1,1,4.9,1c2,0,4.2-1.1,6.9-3
		c4.3-3,6.9-5.1,6.9-7.5c0-0.6,0-61.3,0-61.3h25.8v84.9h-25.8v-7.9c-3.4,2.9-7,5.2-10.9,6.9s-7.6,2.6-11.2,2.6
		c-4.2,0-8.1-0.7-11.8-2.1s-6.8-3.3-9.5-5.7c-2.7-2.4-4.8-5.2-6.4-8.5c-1.5-3.2-2.3-6.7-2.3-10.4v-59.8H216.2 M304.4,373.8h-25.7V14
		l25.7-7.1V373.8 M315.1,160.1l25.8-7.1v87.4h-25.8V160.1 M394.7,196.5c-2.5,1.1-5,2.3-7.5,3.7s-4.8,2.9-6.9,4.6
		c-2.1,1.7-3.8,3.4-5,5.3s-1.9,3.8-1.9,5.9c0,1.6,0.2,3.1,0.6,4.6s1,2.7,1.8,3.8s1.6,1.9,2.5,2.5c0.9,0.6,1.9,1,2.9,1
		c2.1,0,4.2-0.6,6.4-1.9s4.5-2.9,7.2-4.9V196.5 M420.6,240.4h-25.9v-6.8c-1.4,1.2-2.8,2.3-4.2,3.3s-2.9,1.9-4.6,2.7
		s-3.6,1.3-5.7,1.8c-2.1,0.4-4.6,0.6-7.5,0.6c-3.9,0-7.4-0.6-10.6-1.7c-3.1-1.1-5.8-2.7-8-4.6c-2.2-2-3.9-4.3-5-7
		c-1.2-2.7-1.8-5.6-1.8-8.8c0-3.2,0.6-6.2,1.9-8.8c1.2-2.6,2.9-5,5.1-7.1c2.1-2.1,4.7-4,7.5-5.7c2.9-1.7,5.9-3.2,9.2-4.6
		s6.7-2.7,10.2-3.8c3.5-1.2,7-2.3,10.5-3.3l2.8-0.7v-8.4c0-5.4-1-9.3-3.1-11.5c-2.1-2.3-4.8-3.4-8.3-3.4c-4.1,0-6.9,1-8.5,2.9
		c-1.6,2-2.4,4.3-2.4,7.1c0,1.6-0.2,3.1-0.5,4.6c-0.3,1.5-0.9,2.8-1.8,4c-0.8,1.1-2,2-3.6,2.7c-1.5,0.7-3.5,1-5.8,1
		c-3.6,0-6.6-1-8.8-3.1c-2.3-2.1-3.4-4.7-3.4-7.9c0-2.9,1-5.7,3-8.2c2-2.5,4.7-4.7,8.1-6.5c3.4-1.8,7.3-3.2,11.8-4.3
		s9.2-1.6,14.1-1.6c6.1,0,11.4,0.5,15.8,1.6c4.4,1.1,8,2.7,10.9,4.7s5,4.5,6.3,7.3c1.4,2.9,2,6.1,2,9.6V240.4"/>
	<path class="st1" d="M346.8,131.2c0,9.7-7.8,17.5-17.5,17.5c-9.7,0-17.5-7.8-17.5-17.5c0-9.7,7.8-17.5,17.5-17.5
		C338.9,113.7,346.8,121.5,346.8,131.2"/>
	<path class="st2" d="M388.8,131.2c0,9.7-7.8,17.5-17.5,17.5s-17.5-7.8-17.5-17.5c0-9.7,7.8-17.5,17.5-17.5S388.8,121.5,388.8,131.2
		"/>
	<path class="st3" d="M367.8,94.8c0,9.7-7.8,17.5-17.5,17.5c-9.7,0-17.5-7.8-17.5-17.5s7.8-17.5,17.5-17.5
		C360,77.3,367.8,85.1,367.8,94.8"/>
</g>
<g>
	<path class="st0" d="M32.5,254.8l25.9-7.1v47c1.6-1.1,3.4-2.1,5.2-3c1.8-0.9,3.7-1.7,5.6-2.3c1.9-0.7,3.8-1.2,5.7-1.5
		c1.9-0.4,3.8-0.6,5.7-0.6c5.3,0,10.2,1,14.7,3c4.5,2,8.4,4.8,11.6,8.3c3.3,3.5,5.8,7.5,7.6,12.1c1.8,4.6,2.7,9.5,2.7,14.6
		c0,6.8-1.3,13.2-3.8,19.3c-2.6,6.1-6.1,11.4-10.5,16c-4.5,4.6-9.7,8.2-15.6,10.9c-6,2.7-12.3,4-19.1,4c-6.8,0-13.2-0.9-19.3-2.7
		s-11.6-4.7-16.4-8.6V254.8z M58.3,358.4c0.9,0.8,1.8,1.5,2.7,2.3c0.9,0.7,1.9,1.3,3,1.9c1.1,0.6,2.2,1,3.4,1.3
		c1.2,0.3,2.5,0.5,4,0.5c2.9,0,5.5-0.9,7.9-2.6c2.3-1.7,4.4-4.2,6.1-7.2c1.7-3.1,3-6.7,3.9-10.8c0.9-4.1,1.4-8.6,1.4-13.5
		c0-3.6-0.5-7-1.4-10.2c-0.9-3.2-2.2-6-3.8-8.4c-1.6-2.4-3.5-4.3-5.7-5.7c-2.2-1.4-4.5-2.1-7.1-2.1c-1.2,0-2.5,0.2-3.7,0.6
		c-1.3,0.4-2.5,0.9-3.8,1.5c-1.3,0.7-2.5,1.4-3.6,2.3c-1.1,0.9-2.2,1.9-3.1,3V358.4z"/>
	<path class="st0" d="M164,375.7c-6.1,0-11.7-1.1-17-3.4c-5.3-2.2-9.9-5.3-13.9-9.1s-7.1-8.2-9.3-13.2c-2.3-5-3.4-10.3-3.4-15.9
		c0-6.7,1.1-12.9,3.2-18.6c2.1-5.7,5.1-10.7,8.9-14.9c3.8-4.2,8.5-7.5,13.9-9.8c5.4-2.4,11.5-3.6,18.1-3.6c5.9,0,11.3,0.9,16.3,2.8
		c4.9,1.9,9.1,4.5,12.7,7.8c3.5,3.3,6.2,7.1,8.2,11.5c2,4.4,2.9,9.1,2.9,14.2h-58.9c0.2,4.7,0.8,9.2,2,13.4s2.8,8,4.8,11.3
		c2,3.3,4.4,5.9,7,7.8c2.7,1.9,5.7,2.9,8.9,2.9c2.8,0,5.6-0.5,8.4-1.5c2.7-1,5.3-2.3,7.6-4c2.3-1.7,4.3-3.7,6-6
		c1.7-2.3,2.9-4.7,3.7-7.2l13.2,2c-1.3,4.6-3.4,8.9-6.4,13c-2.9,4.1-6.3,7.6-10.2,10.6c-3.9,3-8.2,5.4-12.8,7.2
		C173.4,374.8,168.7,375.7,164,375.7z M175,314.7c-0.2-2.5-0.8-4.8-1.6-6.9s-2-3.8-3.3-5.3c-1.3-1.5-2.9-2.6-4.7-3.4
		c-1.8-0.8-3.7-1.2-5.7-1.2c-1.6,0-3.1,0.4-4.7,1.2c-1.5,0.8-2.9,1.9-4.2,3.4c-1.3,1.5-2.3,3.3-3.2,5.3c-0.9,2.1-1.4,4.4-1.7,6.9
		H175z"/>
	<path class="st0" d="M237.6,373.8h-25.7v-84.9h25.7v6.3c2.8-2.9,6-5.2,9.4-7c3.4-1.8,7.1-2.7,10.9-2.7c2.3,0,4.5,0.3,6.5,0.9
		c2,0.6,3.8,1.4,5.3,2.5c1.5,1.1,2.7,2.3,3.6,3.6c0.9,1.4,1.3,2.8,1.3,4.4c0,1.5-0.3,2.9-0.9,4.2c-0.6,1.2-1.4,2.3-2.4,3.2
		c-1,0.9-2.2,1.6-3.6,2.1c-1.3,0.5-2.8,0.8-4.3,0.8c-2.1,0-3.7-0.3-5.1-0.9c-1.3-0.6-2.5-1.3-3.6-2.1c-1.1-0.8-2.1-1.5-3.3-2.1
		s-2.5-0.9-4.2-0.9c-0.8,0-1.7,0.3-2.6,1c-0.9,0.7-1.7,1.5-2.6,2.6c-0.8,1.1-1.7,2.3-2.5,3.8s-1.5,2.9-2.2,4.4V373.8z"/>
	<path class="st0" d="M314.4,261.8c0-1.7,0.4-3.4,1.1-4.9c0.7-1.5,1.7-2.9,3-4c1.3-1.1,2.7-2,4.4-2.7c1.7-0.7,3.5-1,5.4-1
		s3.7,0.3,5.4,1c1.7,0.7,3.2,1.6,4.4,2.7c1.3,1.1,2.3,2.5,3,4c0.7,1.5,1.1,3.2,1.1,4.9s-0.4,3.4-1.1,4.9c-0.7,1.5-1.7,2.8-3,4
		s-2.7,2-4.4,2.6c-1.7,0.7-3.5,1-5.4,1s-3.7-0.3-5.4-1c-1.7-0.7-3.2-1.5-4.4-2.6s-2.3-2.4-3-4C314.7,265.2,314.4,263.5,314.4,261.8z
		 M315.5,293.5l25.7-7.1v87.4h-25.7V293.5z"/>
	<path class="st0" d="M403.7,315.7c0-2.2-0.2-4.1-0.7-5.8c-0.5-1.7-1.1-3.1-1.9-4.2c-0.8-1.1-1.7-2-2.7-2.6c-1-0.6-2.1-0.9-3.2-0.9
		s-2.4,0.2-3.8,0.7c-1.5,0.4-3,1.1-4.5,1.9c-1.6,0.8-3.2,1.8-4.8,3c-1.6,1.2-3.2,2.5-4.7,3.9v62.2h-25.9v-84.9h25.9v6.6
		c4-2.9,8.2-5,12.7-6.4c4.5-1.3,9.1-2,13.6-2c3.5,0,6.8,0.7,9.9,2s5.9,3.2,8.2,5.5c2.3,2.3,4.2,5.1,5.6,8.2
		c1.4,3.1,2.1,6.5,2.1,10.1v60.8h-25.7V315.7z"/>
</g>
<path class="st4" d="M321.9,64.4c0,16.8-13.6,30.4-30.4,30.4s-30.4-13.6-30.4-30.4c0-16.8,13.6-30.4,30.4-30.4
	S321.9,47.6,321.9,64.4"/>
<g>
	<path d="M179.3,240.4c0,7.5-0.9,13.6-2.6,18.2c-1.7,4.6-4.1,8.2-7.2,10.8c-3.1,2.6-6.9,4.3-11.2,5.1c-4.4,0.9-9.2,1.3-14.6,1.3
		c-3.6,0-6.8-0.3-9.6-0.9c-2.8-0.6-5.1-1.4-7-2.5c-1.9-1.1-3.3-2.3-4.3-3.7c-1-1.4-1.5-2.9-1.5-4.4c0-2.7,1.1-4.9,3.2-6.7
		c2.1-1.8,5-2.7,8.6-2.7c1.4,0,2.6,0.2,3.7,0.6c1.1,0.4,2,1,2.9,1.6c0.8,0.7,1.6,1.4,2.3,2.1c0.7,0.8,1.2,1.5,1.7,2.2
		c1.2,1.6,2.2,2.6,3,3.2c0.8,0.5,1.6,0.8,2.3,0.8c0.7,0,1.4-0.2,2-0.6c0.6-0.4,1.1-1,1.4-2c0.4-0.9,0.6-2.2,0.8-3.8
		c0.2-1.6,0.3-3.6,0.3-6.1v-92.9l25.9-7.1V240.4z M152.4,128.4c0-1.7,0.4-3.4,1.1-4.9c0.7-1.5,1.7-2.9,3-4c1.3-1.1,2.7-2,4.4-2.7
		c1.7-0.7,3.5-1,5.4-1s3.7,0.3,5.4,1c1.7,0.7,3.2,1.6,4.4,2.7c1.3,1.1,2.3,2.5,3,4c0.7,1.5,1.1,3.2,1.1,4.9c0,1.7-0.4,3.4-1.1,4.9
		c-0.7,1.5-1.7,2.8-3,4s-2.7,2-4.4,2.6c-1.7,0.7-3.5,1-5.4,1s-3.7-0.3-5.4-1c-1.7-0.7-3.2-1.5-4.4-2.6s-2.3-2.4-3-4
		C152.7,131.8,152.4,130.1,152.4,128.4z"/>
</g>
<g>
</g>
<g>
</g>
<g>
</g>
<g>
</g>
<g>
</g>
<g>
</g>
</svg>
